<svg width="17" height="17" viewBox="0 0 17 17" fill="none" xmlns="http://www.w3.org/2000/svg">
<path fill-rule="evenodd" clip-rule="evenodd" d="M3.16716 1.29289C2.77664 0.902369 2.14347 0.902369 1.75295 1.29289L1.50695 1.53889C1.11643 1.92941 1.11643 2.56258 1.50695 2.9531L6.48956 7.93571L1.29289 13.1324C0.902369 13.5229 0.902369 14.1561 1.29289 14.5466L1.54279 14.7965C1.93332 15.187 2.56648 15.187 2.95701 14.7965L8.15367 9.59982L13.3464 14.7926C13.7369 15.1831 14.3701 15.1831 14.7606 14.7926L15.0066 14.5466C15.3972 14.1561 15.3972 13.5229 15.0066 13.1324L9.81388 7.93961L14.7965 2.95701C15.187 2.56648 15.187 1.93332 14.7965 1.54279L14.5466 1.2929C14.1561 0.902372 13.5229 0.902373 13.1324 1.2929L8.14977 6.2755L3.16716 1.29289Z" fill="#808D9A"/>
</svg>
